# xmcd
#
# Track frame offsets:
#	150
#	9940
#	19390
#	33338
#	44642
#	55544
#	63770
#	76167
#	86516
#	98217
#
# Disc length: 1422 seconds
#
# Revision: 2
# Processed by: cddbd v1.5.2PL0 Copyright (c) Steve Scherf et al.
# Submitted via: EasyCDDAExtractor 10.5.1.1
#
DISCID=6c058c0a
DTITLE=Bobby Helms - Jingle Bell Rock
DYEAR=1900
DGENRE=Country
TTITLE0=Jingle Bell Rock
TTITLE1=Here Comes Santa Claus
TTITLE2=White Christmas
TTITLE3=Rudolph The Red Nosed Reindeer
TTITLE4=Jingle Bells
TTITLE5=Winter Wonderland
TTITLE6=Silver Bells
TTITLE7=I Saw Mommy Kissing Santa Claus
TTITLE8=Christmas Time In My Home Town
TTITLE9=Santa Claus Is Coming To Town
EXTD=
EXTT0=
EXTT1=
EXTT2=
EXTT3=
EXTT4=
EXTT5=
EXTT6=
EXTT7=
EXTT8=
EXTT9=
PLAYORDER=
